<svg width="320" height="320" viewBox="0 0 320 320" fill="none" xmlns="http://www.w3.org/2000/svg">
  <defs>
    <radialGradient id="glow" cx="50%" cy="44%" r="55%">
      <stop offset="0%" stop-color="#2563EB" stop-opacity="0.30"/>
      <stop offset="55%" stop-color="#2563EB" stop-opacity="0.08"/>
      <stop offset="100%" stop-color="#2563EB" stop-opacity="0"/>
    </radialGradient>
  </defs>
  <circle cx="160" cy="140" r="155" fill="url(#glow)"/>
    <circle cx="0" cy="0" r="1.6" fill="#8A8A8A" fill-opacity="0.08"/>
  <circle cx="16" cy="0" r="1.6" fill="#8A8A8A" fill-opacity="0.10"/>
  <circle cx="32" cy="0" r="1.6" fill="#8A8A8A" fill-opacity="0.11"/>
  <circle cx="48" cy="0" r="1.6" fill="#8A8A8A" fill-opacity="0.12"/>
  <circle cx="64" cy="0" r="1.6" fill="#8A8A8A" fill-opacity="0.13"/>
  <circle cx="80" cy="0" r="1.6" fill="#8A8A8A" fill-opacity="0.14"/>
  <circle cx="96" cy="0" r="1.6" fill="#8A8A8A" fill-opacity="0.15"/>
  <circle cx="112" cy="0" r="1.6" fill="#8A8A8A" fill-opacity="0.16"/>
  <circle cx="128" cy="0" r="1.6" fill="#8A8A8A" fill-opacity="0.16"/>
  <circle cx="144" cy="0" r="1.6" fill="#8A8A8A" fill-opacity="0.16"/>
  <circle cx="160" cy="0" r="1.6" fill="#8A8A8A" fill-opacity="0.16"/>
  <circle cx="176" cy="0" r="1.6" fill="#8A8A8A" fill-opacity="0.16"/>
  <circle cx="192" cy="0" r="1.6" fill="#8A8A8A" fill-opacity="0.16"/>
  <circle cx="208" cy="0" r="1.6" fill="#8A8A8A" fill-opacity="0.16"/>
  <circle cx="224" cy="0" r="1.6" fill="#8A8A8A" fill-opacity="0.15"/>
  <circle cx="240" cy="0" r="1.6" fill="#8A8A8A" fill-opacity="0.14"/>
  <circle cx="256" cy="0" r="1.6" fill="#8A8A8A" fill-opacity="0.13"/>
  <circle cx="272" cy="0" r="1.6" fill="#8A8A8A" fill-opacity="0.12"/>
  <circle cx="288" cy="0" r="1.6" fill="#8A8A8A" fill-opacity="0.11"/>
  <circle cx="304" cy="0" r="1.6" fill="#8A8A8A" fill-opacity="0.10"/>
  <circle cx="8" cy="16" r="1.6" fill="#8A8A8A" fill-opacity="0.10"/>
  <circle cx="24" cy="16" r="1.6" fill="#8A8A8A" fill-opacity="0.12"/>
  <circle cx="40" cy="16" r="1.6" fill="#8A8A8A" fill-opacity="0.13"/>
  <circle cx="56" cy="16" r="1.6" fill="#8A8A8A" fill-opacity="0.14"/>
  <circle cx="72" cy="16" r="1.6" fill="#8A8A8A" fill-opacity="0.15"/>
  <circle cx="88" cy="16" r="1.6" fill="#8A8A8A" fill-opacity="0.16"/>
  <circle cx="104" cy="16" r="1.6" fill="#8A8A8A" fill-opacity="0.17"/>
  <circle cx="120" cy="16" r="1.6" fill="#8A8A8A" fill-opacity="0.18"/>
  <circle cx="136" cy="16" r="1.6" fill="#8A8A8A" fill-opacity="0.18"/>
  <circle cx="152" cy="16" r="1.6" fill="#8A8A8A" fill-opacity="0.18"/>
  <circle cx="168" cy="16" r="1.6" fill="#8A8A8A" fill-opacity="0.18"/>
  <circle cx="184" cy="16" r="1.6" fill="#8A8A8A" fill-opacity="0.18"/>
  <circle cx="200" cy="16" r="1.6" fill="#8A8A8A" fill-opacity="0.18"/>
  <circle cx="216" cy="16" r="1.6" fill="#8A8A8A" fill-opacity="0.17"/>
  <circle cx="232" cy="16" r="1.6" fill="#8A8A8A" fill-opacity="0.16"/>
  <circle cx="248" cy="16" r="1.6" fill="#8A8A8A" fill-opacity="0.15"/>
  <circle cx="264" cy="16" r="1.6" fill="#8A8A8A" fill-opacity="0.14"/>
  <circle cx="280" cy="16" r="1.6" fill="#8A8A8A" fill-opacity="0.13"/>
  <circle cx="296" cy="16" r="1.6" fill="#8A8A8A" fill-opacity="0.12"/>
  <circle cx="312" cy="16" r="1.6" fill="#8A8A8A" fill-opacity="0.10"/>
  <circle cx="0" cy="32" r="1.6" fill="#8A8A8A" fill-opacity="0.11"/>
  <circle cx="16" cy="32" r="1.6" fill="#8A8A8A" fill-opacity="0.12"/>
  <circle cx="32" cy="32" r="1.6" fill="#8A8A8A" fill-opacity="0.13"/>
  <circle cx="48" cy="32" r="1.6" fill="#8A8A8A" fill-opacity="0.15"/>
  <circle cx="64" cy="32" r="1.6" fill="#8A8A8A" fill-opacity="0.16"/>
  <circle cx="80" cy="32" r="1.6" fill="#8A8A8A" fill-opacity="0.17"/>
  <circle cx="96" cy="32" r="1.6" fill="#8A8A8A" fill-opacity="0.18"/>
  <circle cx="112" cy="32" r="1.6" fill="#8A8A8A" fill-opacity="0.19"/>
  <circle cx="128" cy="32" r="1.6" fill="#8A8A8A" fill-opacity="0.19"/>
  <circle cx="144" cy="32" r="1.6" fill="#8A8A8A" fill-opacity="0.20"/>
  <circle cx="160" cy="32" r="1.6" fill="#8A8A8A" fill-opacity="0.20"/>
  <circle cx="176" cy="32" r="1.6" fill="#8A8A8A" fill-opacity="0.20"/>
  <circle cx="192" cy="32" r="1.6" fill="#8A8A8A" fill-opacity="0.19"/>
  <circle cx="208" cy="32" r="1.6" fill="#8A8A8A" fill-opacity="0.19"/>
  <circle cx="224" cy="32" r="1.6" fill="#8A8A8A" fill-opacity="0.18"/>
  <circle cx="240" cy="32" r="1.6" fill="#8A8A8A" fill-opacity="0.17"/>
  <circle cx="256" cy="32" r="1.6" fill="#8A8A8A" fill-opacity="0.16"/>
  <circle cx="272" cy="32" r="1.6" fill="#8A8A8A" fill-opacity="0.15"/>
  <circle cx="288" cy="32" r="1.6" fill="#8A8A8A" fill-opacity="0.13"/>
  <circle cx="304" cy="32" r="1.6" fill="#8A8A8A" fill-opacity="0.12"/>
  <circle cx="8" cy="48" r="1.6" fill="#8A8A8A" fill-opacity="0.12"/>
  <circle cx="24" cy="48" r="1.6" fill="#8A8A8A" fill-opacity="0.14"/>
  <circle cx="40" cy="48" r="1.6" fill="#8A8A8A" fill-opacity="0.15"/>
  <circle cx="56" cy="48" r="1.6" fill="#8A8A8A" fill-opacity="0.17"/>
  <circle cx="72" cy="48" r="1.6" fill="#8A8A8A" fill-opacity="0.18"/>
  <circle cx="88" cy="48" r="1.6" fill="#8A8A8A" fill-opacity="0.19"/>
  <circle cx="104" cy="48" r="1.6" fill="#8A8A8A" fill-opacity="0.20"/>
  <circle cx="120" cy="48" r="1.6" fill="#8A8A8A" fill-opacity="0.21"/>
  <circle cx="136" cy="48" r="1.6" fill="#8A8A8A" fill-opacity="0.21"/>
  <circle cx="152" cy="48" r="1.6" fill="#8A8A8A" fill-opacity="0.22"/>
  <circle cx="168" cy="48" r="1.6" fill="#8A8A8A" fill-opacity="0.22"/>
  <circle cx="184" cy="48" r="1.6" fill="#8A8A8A" fill-opacity="0.21"/>
  <circle cx="200" cy="48" r="1.6" fill="#8A8A8A" fill-opacity="0.21"/>
  <circle cx="216" cy="48" r="1.6" fill="#8A8A8A" fill-opacity="0.20"/>
  <circle cx="232" cy="48" r="1.6" fill="#8A8A8A" fill-opacity="0.19"/>
  <circle cx="248" cy="48" r="1.6" fill="#8A8A8A" fill-opacity="0.18"/>
  <circle cx="264" cy="48" r="1.6" fill="#8A8A8A" fill-opacity="0.17"/>
  <circle cx="280" cy="48" r="1.6" fill="#8A8A8A" fill-opacity="0.15"/>
  <circle cx="296" cy="48" r="1.6" fill="#8A8A8A" fill-opacity="0.14"/>
  <circle cx="312" cy="48" r="1.6" fill="#8A8A8A" fill-opacity="0.12"/>
  <circle cx="0" cy="64" r="1.6" fill="#8A8A8A" fill-opacity="0.12"/>
  <circle cx="16" cy="64" r="1.6" fill="#8A8A8A" fill-opacity="0.14"/>
  <circle cx="32" cy="64" r="1.6" fill="#8A8A8A" fill-opacity="0.15"/>
  <circle cx="48" cy="64" r="1.6" fill="#8A8A8A" fill-opacity="0.17"/>
  <circle cx="64" cy="64" r="1.6" fill="#8A8A8A" fill-opacity="0.18"/>
  <circle cx="80" cy="64" r="1.6" fill="#8A8A8A" fill-opacity="0.20"/>
  <circle cx="96" cy="64" r="1.6" fill="#8A8A8A" fill-opacity="0.21"/>
  <circle cx="112" cy="64" r="1.6" fill="#8A8A8A" fill-opacity="0.22"/>
  <circle cx="128" cy="64" r="1.6" fill="#8A8A8A" fill-opacity="0.23"/>
  <circle cx="144" cy="64" r="1.6" fill="#8A8A8A" fill-opacity="0.23"/>
  <circle cx="160" cy="64" r="1.6" fill="#8A8A8A" fill-opacity="0.24"/>
  <circle cx="176" cy="64" r="1.6" fill="#8A8A8A" fill-opacity="0.23"/>
  <circle cx="192" cy="64" r="1.6" fill="#8A8A8A" fill-opacity="0.23"/>
  <circle cx="208" cy="64" r="1.6" fill="#8A8A8A" fill-opacity="0.22"/>
  <circle cx="224" cy="64" r="1.6" fill="#8A8A8A" fill-opacity="0.21"/>
  <circle cx="240" cy="64" r="1.6" fill="#8A8A8A" fill-opacity="0.20"/>
  <circle cx="256" cy="64" r="1.6" fill="#8A8A8A" fill-opacity="0.18"/>
  <circle cx="272" cy="64" r="1.6" fill="#8A8A8A" fill-opacity="0.17"/>
  <circle cx="288" cy="64" r="1.6" fill="#8A8A8A" fill-opacity="0.15"/>
  <circle cx="304" cy="64" r="1.6" fill="#8A8A8A" fill-opacity="0.14"/>
  <circle cx="8" cy="80" r="1.6" fill="#8A8A8A" fill-opacity="0.14"/>
  <circle cx="24" cy="80" r="1.6" fill="#8A8A8A" fill-opacity="0.15"/>
  <circle cx="40" cy="80" r="1.6" fill="#8A8A8A" fill-opacity="0.17"/>
  <circle cx="56" cy="80" r="1.6" fill="#8A8A8A" fill-opacity="0.19"/>
  <circle cx="72" cy="80" r="1.6" fill="#8A8A8A" fill-opacity="0.20"/>
  <circle cx="88" cy="80" r="1.6" fill="#8A8A8A" fill-opacity="0.22"/>
  <circle cx="104" cy="80" r="1.6" fill="#8A8A8A" fill-opacity="0.23"/>
  <circle cx="120" cy="80" r="1.6" fill="#8A8A8A" fill-opacity="0.24"/>
  <circle cx="136" cy="80" r="1.6" fill="#8A8A8A" fill-opacity="0.25"/>
  <circle cx="152" cy="80" r="1.6" fill="#8A8A8A" fill-opacity="0.25"/>
  <circle cx="168" cy="80" r="1.6" fill="#8A8A8A" fill-opacity="0.25"/>
  <circle cx="184" cy="80" r="1.6" fill="#8A8A8A" fill-opacity="0.25"/>
  <circle cx="200" cy="80" r="1.6" fill="#8A8A8A" fill-opacity="0.24"/>
  <circle cx="216" cy="80" r="1.6" fill="#8A8A8A" fill-opacity="0.23"/>
  <circle cx="232" cy="80" r="1.6" fill="#8A8A8A" fill-opacity="0.22"/>
  <circle cx="248" cy="80" r="1.6" fill="#8A8A8A" fill-opacity="0.20"/>
  <circle cx="264" cy="80" r="1.6" fill="#8A8A8A" fill-opacity="0.19"/>
  <circle cx="280" cy="80" r="1.6" fill="#8A8A8A" fill-opacity="0.17"/>
  <circle cx="296" cy="80" r="1.6" fill="#8A8A8A" fill-opacity="0.15"/>
  <circle cx="312" cy="80" r="1.6" fill="#8A8A8A" fill-opacity="0.14"/>
  <circle cx="0" cy="96" r="1.6" fill="#8A8A8A" fill-opacity="0.14"/>
  <circle cx="16" cy="96" r="1.6" fill="#8A8A8A" fill-opacity="0.15"/>
  <circle cx="32" cy="96" r="1.6" fill="#8A8A8A" fill-opacity="0.17"/>
  <circle cx="48" cy="96" r="1.6" fill="#8A8A8A" fill-opacity="0.19"/>
  <circle cx="64" cy="96" r="1.6" fill="#8A8A8A" fill-opacity="0.20"/>
  <circle cx="80" cy="96" r="1.6" fill="#8A8A8A" fill-opacity="0.22"/>
  <circle cx="96" cy="96" r="1.6" fill="#8A8A8A" fill-opacity="0.23"/>
  <circle cx="112" cy="96" r="1.6" fill="#8A8A8A" fill-opacity="0.25"/>
  <circle cx="128" cy="96" r="1.6" fill="#8A8A8A" fill-opacity="0.26"/>
  <circle cx="144" cy="96" r="1.6" fill="#8A8A8A" fill-opacity="0.27"/>
  <circle cx="160" cy="96" r="1.6" fill="#8A8A8A" fill-opacity="0.27"/>
  <circle cx="176" cy="96" r="1.6" fill="#8A8A8A" fill-opacity="0.27"/>
  <circle cx="192" cy="96" r="1.6" fill="#8A8A8A" fill-opacity="0.26"/>
  <circle cx="208" cy="96" r="1.6" fill="#8A8A8A" fill-opacity="0.25"/>
  <circle cx="224" cy="96" r="1.6" fill="#8A8A8A" fill-opacity="0.23"/>
  <circle cx="240" cy="96" r="1.6" fill="#8A8A8A" fill-opacity="0.22"/>
  <circle cx="256" cy="96" r="1.6" fill="#8A8A8A" fill-opacity="0.20"/>
  <circle cx="272" cy="96" r="1.6" fill="#8A8A8A" fill-opacity="0.19"/>
  <circle cx="288" cy="96" r="1.6" fill="#8A8A8A" fill-opacity="0.17"/>
  <circle cx="304" cy="96" r="1.6" fill="#8A8A8A" fill-opacity="0.15"/>
  <circle cx="8" cy="112" r="1.6" fill="#8A8A8A" fill-opacity="0.15"/>
  <circle cx="24" cy="112" r="1.6" fill="#8A8A8A" fill-opacity="0.17"/>
  <circle cx="40" cy="112" r="1.6" fill="#8A8A8A" fill-opacity="0.18"/>
  <circle cx="56" cy="112" r="1.6" fill="#8A8A8A" fill-opacity="0.20"/>
  <circle cx="72" cy="112" r="1.6" fill="#8A8A8A" fill-opacity="0.22"/>
  <circle cx="88" cy="112" r="1.6" fill="#8A8A8A" fill-opacity="0.23"/>
  <circle cx="104" cy="112" r="1.6" fill="#8A8A8A" fill-opacity="0.25"/>
  <circle cx="120" cy="112" r="1.6" fill="#8A8A8A" fill-opacity="0.27"/>
  <circle cx="136" cy="112" r="1.6" fill="#8A8A8A" fill-opacity="0.28"/>
  <circle cx="152" cy="112" r="1.6" fill="#8A8A8A" fill-opacity="0.29"/>
  <circle cx="168" cy="112" r="1.6" fill="#8A8A8A" fill-opacity="0.29"/>
  <circle cx="184" cy="112" r="1.6" fill="#8A8A8A" fill-opacity="0.28"/>
  <circle cx="200" cy="112" r="1.6" fill="#8A8A8A" fill-opacity="0.27"/>
  <circle cx="216" cy="112" r="1.6" fill="#8A8A8A" fill-opacity="0.25"/>
  <circle cx="232" cy="112" r="1.6" fill="#8A8A8A" fill-opacity="0.23"/>
  <circle cx="248" cy="112" r="1.6" fill="#8A8A8A" fill-opacity="0.22"/>
  <circle cx="264" cy="112" r="1.6" fill="#8A8A8A" fill-opacity="0.20"/>
  <circle cx="280" cy="112" r="1.6" fill="#8A8A8A" fill-opacity="0.18"/>
  <circle cx="296" cy="112" r="1.6" fill="#8A8A8A" fill-opacity="0.17"/>
  <circle cx="312" cy="112" r="1.6" fill="#8A8A8A" fill-opacity="0.15"/>
  <circle cx="0" cy="128" r="1.6" fill="#8A8A8A" fill-opacity="0.14"/>
  <circle cx="16" cy="128" r="1.6" fill="#8A8A8A" fill-opacity="0.16"/>
  <circle cx="32" cy="128" r="1.6" fill="#8A8A8A" fill-opacity="0.18"/>
  <circle cx="48" cy="128" r="1.6" fill="#8A8A8A" fill-opacity="0.19"/>
  <circle cx="64" cy="128" r="1.6" fill="#8A8A8A" fill-opacity="0.21"/>
  <circle cx="80" cy="128" r="1.6" fill="#8A8A8A" fill-opacity="0.23"/>
  <circle cx="96" cy="128" r="1.6" fill="#8A8A8A" fill-opacity="0.25"/>
  <circle cx="112" cy="128" r="1.6" fill="#8A8A8A" fill-opacity="0.27"/>
  <circle cx="128" cy="128" r="1.6" fill="#8A8A8A" fill-opacity="0.28"/>
  <circle cx="144" cy="128" r="1.6" fill="#8A8A8A" fill-opacity="0.30"/>
  <circle cx="160" cy="128" r="1.6" fill="#8A8A8A" fill-opacity="0.31"/>
  <circle cx="176" cy="128" r="1.6" fill="#8A8A8A" fill-opacity="0.30"/>
  <circle cx="192" cy="128" r="1.6" fill="#8A8A8A" fill-opacity="0.28"/>
  <circle cx="208" cy="128" r="1.6" fill="#8A8A8A" fill-opacity="0.27"/>
  <circle cx="224" cy="128" r="1.6" fill="#8A8A8A" fill-opacity="0.25"/>
  <circle cx="240" cy="128" r="1.6" fill="#8A8A8A" fill-opacity="0.23"/>
  <circle cx="256" cy="128" r="1.6" fill="#8A8A8A" fill-opacity="0.21"/>
  <circle cx="272" cy="128" r="1.6" fill="#8A8A8A" fill-opacity="0.19"/>
  <circle cx="288" cy="128" r="1.6" fill="#8A8A8A" fill-opacity="0.18"/>
  <circle cx="304" cy="128" r="1.6" fill="#8A8A8A" fill-opacity="0.16"/>
  <circle cx="8" cy="144" r="1.6" fill="#8A8A8A" fill-opacity="0.15"/>
  <circle cx="24" cy="144" r="1.6" fill="#8A8A8A" fill-opacity="0.17"/>
  <circle cx="40" cy="144" r="1.6" fill="#8A8A8A" fill-opacity="0.19"/>
  <circle cx="56" cy="144" r="1.6" fill="#8A8A8A" fill-opacity="0.20"/>
  <circle cx="72" cy="144" r="1.6" fill="#8A8A8A" fill-opacity="0.22"/>
  <circle cx="88" cy="144" r="1.6" fill="#8A8A8A" fill-opacity="0.24"/>
  <circle cx="104" cy="144" r="1.6" fill="#8A8A8A" fill-opacity="0.26"/>
  <circle cx="120" cy="144" r="1.6" fill="#8A8A8A" fill-opacity="0.28"/>
  <circle cx="136" cy="144" r="1.6" fill="#8A8A8A" fill-opacity="0.29"/>
  <circle cx="152" cy="144" r="1.6" fill="#8A8A8A" fill-opacity="0.31"/>
  <circle cx="168" cy="144" r="1.6" fill="#8A8A8A" fill-opacity="0.31"/>
  <circle cx="184" cy="144" r="1.6" fill="#8A8A8A" fill-opacity="0.29"/>
  <circle cx="200" cy="144" r="1.6" fill="#8A8A8A" fill-opacity="0.28"/>
  <circle cx="216" cy="144" r="1.6" fill="#8A8A8A" fill-opacity="0.26"/>
  <circle cx="232" cy="144" r="1.6" fill="#8A8A8A" fill-opacity="0.24"/>
  <circle cx="248" cy="144" r="1.6" fill="#8A8A8A" fill-opacity="0.22"/>
  <circle cx="264" cy="144" r="1.6" fill="#8A8A8A" fill-opacity="0.20"/>
  <circle cx="280" cy="144" r="1.6" fill="#8A8A8A" fill-opacity="0.19"/>
  <circle cx="296" cy="144" r="1.6" fill="#8A8A8A" fill-opacity="0.17"/>
  <circle cx="312" cy="144" r="1.6" fill="#8A8A8A" fill-opacity="0.15"/>
  <circle cx="0" cy="160" r="1.6" fill="#8A8A8A" fill-opacity="0.14"/>
  <circle cx="16" cy="160" r="1.6" fill="#8A8A8A" fill-opacity="0.16"/>
  <circle cx="32" cy="160" r="1.6" fill="#8A8A8A" fill-opacity="0.18"/>
  <circle cx="48" cy="160" r="1.6" fill="#8A8A8A" fill-opacity="0.19"/>
  <circle cx="64" cy="160" r="1.6" fill="#8A8A8A" fill-opacity="0.21"/>
  <circle cx="80" cy="160" r="1.6" fill="#8A8A8A" fill-opacity="0.23"/>
  <circle cx="96" cy="160" r="1.6" fill="#8A8A8A" fill-opacity="0.25"/>
  <circle cx="112" cy="160" r="1.6" fill="#8A8A8A" fill-opacity="0.26"/>
  <circle cx="128" cy="160" r="1.6" fill="#8A8A8A" fill-opacity="0.28"/>
  <circle cx="144" cy="160" r="1.6" fill="#8A8A8A" fill-opacity="0.29"/>
  <circle cx="160" cy="160" r="1.6" fill="#8A8A8A" fill-opacity="0.30"/>
  <circle cx="176" cy="160" r="1.6" fill="#8A8A8A" fill-opacity="0.29"/>
  <circle cx="192" cy="160" r="1.6" fill="#8A8A8A" fill-opacity="0.28"/>
  <circle cx="208" cy="160" r="1.6" fill="#8A8A8A" fill-opacity="0.26"/>
  <circle cx="224" cy="160" r="1.6" fill="#8A8A8A" fill-opacity="0.25"/>
  <circle cx="240" cy="160" r="1.6" fill="#8A8A8A" fill-opacity="0.23"/>
  <circle cx="256" cy="160" r="1.6" fill="#8A8A8A" fill-opacity="0.21"/>
  <circle cx="272" cy="160" r="1.6" fill="#8A8A8A" fill-opacity="0.19"/>
  <circle cx="288" cy="160" r="1.6" fill="#8A8A8A" fill-opacity="0.18"/>
  <circle cx="304" cy="160" r="1.6" fill="#8A8A8A" fill-opacity="0.16"/>
  <circle cx="8" cy="176" r="1.6" fill="#8A8A8A" fill-opacity="0.15"/>
  <circle cx="24" cy="176" r="1.6" fill="#8A8A8A" fill-opacity="0.16"/>
  <circle cx="40" cy="176" r="1.6" fill="#8A8A8A" fill-opacity="0.18"/>
  <circle cx="56" cy="176" r="1.6" fill="#8A8A8A" fill-opacity="0.20"/>
  <circle cx="72" cy="176" r="1.6" fill="#8A8A8A" fill-opacity="0.21"/>
  <circle cx="88" cy="176" r="1.6" fill="#8A8A8A" fill-opacity="0.23"/>
  <circle cx="104" cy="176" r="1.6" fill="#8A8A8A" fill-opacity="0.25"/>
  <circle cx="120" cy="176" r="1.6" fill="#8A8A8A" fill-opacity="0.26"/>
  <circle cx="136" cy="176" r="1.6" fill="#8A8A8A" fill-opacity="0.27"/>
  <circle cx="152" cy="176" r="1.6" fill="#8A8A8A" fill-opacity="0.28"/>
  <circle cx="168" cy="176" r="1.6" fill="#8A8A8A" fill-opacity="0.28"/>
  <circle cx="184" cy="176" r="1.6" fill="#8A8A8A" fill-opacity="0.27"/>
  <circle cx="200" cy="176" r="1.6" fill="#8A8A8A" fill-opacity="0.26"/>
  <circle cx="216" cy="176" r="1.6" fill="#8A8A8A" fill-opacity="0.25"/>
  <circle cx="232" cy="176" r="1.6" fill="#8A8A8A" fill-opacity="0.23"/>
  <circle cx="248" cy="176" r="1.6" fill="#8A8A8A" fill-opacity="0.21"/>
  <circle cx="264" cy="176" r="1.6" fill="#8A8A8A" fill-opacity="0.20"/>
  <circle cx="280" cy="176" r="1.6" fill="#8A8A8A" fill-opacity="0.18"/>
  <circle cx="296" cy="176" r="1.6" fill="#8A8A8A" fill-opacity="0.16"/>
  <circle cx="312" cy="176" r="1.6" fill="#8A8A8A" fill-opacity="0.15"/>
  <circle cx="0" cy="192" r="1.6" fill="#8A8A8A" fill-opacity="0.13"/>
  <circle cx="16" cy="192" r="1.6" fill="#8A8A8A" fill-opacity="0.15"/>
  <circle cx="32" cy="192" r="1.6" fill="#8A8A8A" fill-opacity="0.17"/>
  <circle cx="48" cy="192" r="1.6" fill="#8A8A8A" fill-opacity="0.18"/>
  <circle cx="64" cy="192" r="1.6" fill="#8A8A8A" fill-opacity="0.20"/>
  <circle cx="80" cy="192" r="1.6" fill="#8A8A8A" fill-opacity="0.21"/>
  <circle cx="96" cy="192" r="1.6" fill="#8A8A8A" fill-opacity="0.23"/>
  <circle cx="112" cy="192" r="1.6" fill="#8A8A8A" fill-opacity="0.24"/>
  <circle cx="128" cy="192" r="1.6" fill="#8A8A8A" fill-opacity="0.25"/>
  <circle cx="144" cy="192" r="1.6" fill="#8A8A8A" fill-opacity="0.26"/>
  <circle cx="160" cy="192" r="1.6" fill="#8A8A8A" fill-opacity="0.26"/>
  <circle cx="176" cy="192" r="1.6" fill="#8A8A8A" fill-opacity="0.26"/>
  <circle cx="192" cy="192" r="1.6" fill="#8A8A8A" fill-opacity="0.25"/>
  <circle cx="208" cy="192" r="1.6" fill="#8A8A8A" fill-opacity="0.24"/>
  <circle cx="224" cy="192" r="1.6" fill="#8A8A8A" fill-opacity="0.23"/>
  <circle cx="240" cy="192" r="1.6" fill="#8A8A8A" fill-opacity="0.21"/>
  <circle cx="256" cy="192" r="1.6" fill="#8A8A8A" fill-opacity="0.20"/>
  <circle cx="272" cy="192" r="1.6" fill="#8A8A8A" fill-opacity="0.18"/>
  <circle cx="288" cy="192" r="1.6" fill="#8A8A8A" fill-opacity="0.17"/>
  <circle cx="304" cy="192" r="1.6" fill="#8A8A8A" fill-opacity="0.15"/>
  <circle cx="8" cy="208" r="1.6" fill="#8A8A8A" fill-opacity="0.13"/>
  <circle cx="24" cy="208" r="1.6" fill="#8A8A8A" fill-opacity="0.15"/>
  <circle cx="40" cy="208" r="1.6" fill="#8A8A8A" fill-opacity="0.17"/>
  <circle cx="56" cy="208" r="1.6" fill="#8A8A8A" fill-opacity="0.18"/>
  <circle cx="72" cy="208" r="1.6" fill="#8A8A8A" fill-opacity="0.20"/>
  <circle cx="88" cy="208" r="1.6" fill="#8A8A8A" fill-opacity="0.21"/>
  <circle cx="104" cy="208" r="1.6" fill="#8A8A8A" fill-opacity="0.22"/>
  <circle cx="120" cy="208" r="1.6" fill="#8A8A8A" fill-opacity="0.23"/>
  <circle cx="136" cy="208" r="1.6" fill="#8A8A8A" fill-opacity="0.24"/>
  <circle cx="152" cy="208" r="1.6" fill="#8A8A8A" fill-opacity="0.24"/>
  <circle cx="168" cy="208" r="1.6" fill="#8A8A8A" fill-opacity="0.24"/>
  <circle cx="184" cy="208" r="1.6" fill="#8A8A8A" fill-opacity="0.24"/>
  <circle cx="200" cy="208" r="1.6" fill="#8A8A8A" fill-opacity="0.23"/>
  <circle cx="216" cy="208" r="1.6" fill="#8A8A8A" fill-opacity="0.22"/>
  <circle cx="232" cy="208" r="1.6" fill="#8A8A8A" fill-opacity="0.21"/>
  <circle cx="248" cy="208" r="1.6" fill="#8A8A8A" fill-opacity="0.20"/>
  <circle cx="264" cy="208" r="1.6" fill="#8A8A8A" fill-opacity="0.18"/>
  <circle cx="280" cy="208" r="1.6" fill="#8A8A8A" fill-opacity="0.17"/>
  <circle cx="296" cy="208" r="1.6" fill="#8A8A8A" fill-opacity="0.15"/>
  <circle cx="312" cy="208" r="1.6" fill="#8A8A8A" fill-opacity="0.13"/>
  <circle cx="0" cy="224" r="1.6" fill="#8A8A8A" fill-opacity="0.12"/>
  <circle cx="16" cy="224" r="1.6" fill="#8A8A8A" fill-opacity="0.13"/>
  <circle cx="32" cy="224" r="1.6" fill="#8A8A8A" fill-opacity="0.15"/>
  <circle cx="48" cy="224" r="1.6" fill="#8A8A8A" fill-opacity="0.16"/>
  <circle cx="64" cy="224" r="1.6" fill="#8A8A8A" fill-opacity="0.18"/>
  <circle cx="80" cy="224" r="1.6" fill="#8A8A8A" fill-opacity="0.19"/>
  <circle cx="96" cy="224" r="1.6" fill="#8A8A8A" fill-opacity="0.20"/>
  <circle cx="112" cy="224" r="1.6" fill="#8A8A8A" fill-opacity="0.21"/>
  <circle cx="128" cy="224" r="1.6" fill="#8A8A8A" fill-opacity="0.22"/>
  <circle cx="144" cy="224" r="1.6" fill="#8A8A8A" fill-opacity="0.22"/>
  <circle cx="160" cy="224" r="1.6" fill="#8A8A8A" fill-opacity="0.23"/>
  <circle cx="176" cy="224" r="1.6" fill="#8A8A8A" fill-opacity="0.22"/>
  <circle cx="192" cy="224" r="1.6" fill="#8A8A8A" fill-opacity="0.22"/>
  <circle cx="208" cy="224" r="1.6" fill="#8A8A8A" fill-opacity="0.21"/>
  <circle cx="224" cy="224" r="1.6" fill="#8A8A8A" fill-opacity="0.20"/>
  <circle cx="240" cy="224" r="1.6" fill="#8A8A8A" fill-opacity="0.19"/>
  <circle cx="256" cy="224" r="1.6" fill="#8A8A8A" fill-opacity="0.18"/>
  <circle cx="272" cy="224" r="1.6" fill="#8A8A8A" fill-opacity="0.16"/>
  <circle cx="288" cy="224" r="1.6" fill="#8A8A8A" fill-opacity="0.15"/>
  <circle cx="304" cy="224" r="1.6" fill="#8A8A8A" fill-opacity="0.13"/>
  <circle cx="8" cy="240" r="1.6" fill="#8A8A8A" fill-opacity="0.12"/>
  <circle cx="24" cy="240" r="1.6" fill="#8A8A8A" fill-opacity="0.13"/>
  <circle cx="40" cy="240" r="1.6" fill="#8A8A8A" fill-opacity="0.15"/>
  <circle cx="56" cy="240" r="1.6" fill="#8A8A8A" fill-opacity="0.16"/>
  <circle cx="72" cy="240" r="1.6" fill="#8A8A8A" fill-opacity="0.17"/>
  <circle cx="88" cy="240" r="1.6" fill="#8A8A8A" fill-opacity="0.18"/>
  <circle cx="104" cy="240" r="1.6" fill="#8A8A8A" fill-opacity="0.19"/>
  <circle cx="120" cy="240" r="1.6" fill="#8A8A8A" fill-opacity="0.20"/>
  <circle cx="136" cy="240" r="1.6" fill="#8A8A8A" fill-opacity="0.21"/>
  <circle cx="152" cy="240" r="1.6" fill="#8A8A8A" fill-opacity="0.21"/>
  <circle cx="168" cy="240" r="1.6" fill="#8A8A8A" fill-opacity="0.21"/>
  <circle cx="184" cy="240" r="1.6" fill="#8A8A8A" fill-opacity="0.21"/>
  <circle cx="200" cy="240" r="1.6" fill="#8A8A8A" fill-opacity="0.20"/>
  <circle cx="216" cy="240" r="1.6" fill="#8A8A8A" fill-opacity="0.19"/>
  <circle cx="232" cy="240" r="1.6" fill="#8A8A8A" fill-opacity="0.18"/>
  <circle cx="248" cy="240" r="1.6" fill="#8A8A8A" fill-opacity="0.17"/>
  <circle cx="264" cy="240" r="1.6" fill="#8A8A8A" fill-opacity="0.16"/>
  <circle cx="280" cy="240" r="1.6" fill="#8A8A8A" fill-opacity="0.15"/>
  <circle cx="296" cy="240" r="1.6" fill="#8A8A8A" fill-opacity="0.13"/>
  <circle cx="312" cy="240" r="1.6" fill="#8A8A8A" fill-opacity="0.12"/>
  <circle cx="0" cy="256" r="1.6" fill="#8A8A8A" fill-opacity="0.10"/>
  <circle cx="16" cy="256" r="1.6" fill="#8A8A8A" fill-opacity="0.11"/>
  <circle cx="32" cy="256" r="1.6" fill="#8A8A8A" fill-opacity="0.13"/>
  <circle cx="48" cy="256" r="1.6" fill="#8A8A8A" fill-opacity="0.14"/>
  <circle cx="64" cy="256" r="1.6" fill="#8A8A8A" fill-opacity="0.15"/>
  <circle cx="80" cy="256" r="1.6" fill="#8A8A8A" fill-opacity="0.16"/>
  <circle cx="96" cy="256" r="1.6" fill="#8A8A8A" fill-opacity="0.17"/>
  <circle cx="112" cy="256" r="1.6" fill="#8A8A8A" fill-opacity="0.18"/>
  <circle cx="128" cy="256" r="1.6" fill="#8A8A8A" fill-opacity="0.19"/>
  <circle cx="144" cy="256" r="1.6" fill="#8A8A8A" fill-opacity="0.19"/>
  <circle cx="160" cy="256" r="1.6" fill="#8A8A8A" fill-opacity="0.19"/>
  <circle cx="176" cy="256" r="1.6" fill="#8A8A8A" fill-opacity="0.19"/>
  <circle cx="192" cy="256" r="1.6" fill="#8A8A8A" fill-opacity="0.19"/>
  <circle cx="208" cy="256" r="1.6" fill="#8A8A8A" fill-opacity="0.18"/>
  <circle cx="224" cy="256" r="1.6" fill="#8A8A8A" fill-opacity="0.17"/>
  <circle cx="240" cy="256" r="1.6" fill="#8A8A8A" fill-opacity="0.16"/>
  <circle cx="256" cy="256" r="1.6" fill="#8A8A8A" fill-opacity="0.15"/>
  <circle cx="272" cy="256" r="1.6" fill="#8A8A8A" fill-opacity="0.14"/>
  <circle cx="288" cy="256" r="1.6" fill="#8A8A8A" fill-opacity="0.13"/>
  <circle cx="304" cy="256" r="1.6" fill="#8A8A8A" fill-opacity="0.11"/>
  <circle cx="8" cy="272" r="1.6" fill="#8A8A8A" fill-opacity="0.10"/>
  <circle cx="24" cy="272" r="1.6" fill="#8A8A8A" fill-opacity="0.11"/>
  <circle cx="40" cy="272" r="1.6" fill="#8A8A8A" fill-opacity="0.12"/>
  <circle cx="56" cy="272" r="1.6" fill="#8A8A8A" fill-opacity="0.13"/>
  <circle cx="72" cy="272" r="1.6" fill="#8A8A8A" fill-opacity="0.14"/>
  <circle cx="88" cy="272" r="1.6" fill="#8A8A8A" fill-opacity="0.15"/>
  <circle cx="104" cy="272" r="1.6" fill="#8A8A8A" fill-opacity="0.16"/>
  <circle cx="120" cy="272" r="1.6" fill="#8A8A8A" fill-opacity="0.17"/>
  <circle cx="136" cy="272" r="1.6" fill="#8A8A8A" fill-opacity="0.17"/>
  <circle cx="152" cy="272" r="1.6" fill="#8A8A8A" fill-opacity="0.17"/>
  <circle cx="168" cy="272" r="1.6" fill="#8A8A8A" fill-opacity="0.17"/>
  <circle cx="184" cy="272" r="1.6" fill="#8A8A8A" fill-opacity="0.17"/>
  <circle cx="200" cy="272" r="1.6" fill="#8A8A8A" fill-opacity="0.17"/>
  <circle cx="216" cy="272" r="1.6" fill="#8A8A8A" fill-opacity="0.16"/>
  <circle cx="232" cy="272" r="1.6" fill="#8A8A8A" fill-opacity="0.15"/>
  <circle cx="248" cy="272" r="1.6" fill="#8A8A8A" fill-opacity="0.14"/>
  <circle cx="264" cy="272" r="1.6" fill="#8A8A8A" fill-opacity="0.13"/>
  <circle cx="280" cy="272" r="1.6" fill="#8A8A8A" fill-opacity="0.12"/>
  <circle cx="296" cy="272" r="1.6" fill="#8A8A8A" fill-opacity="0.11"/>
  <circle cx="312" cy="272" r="1.6" fill="#8A8A8A" fill-opacity="0.10"/>
  <circle cx="0" cy="288" r="1.6" fill="#8A8A8A" fill-opacity="0.08"/>
  <circle cx="16" cy="288" r="1.6" fill="#8A8A8A" fill-opacity="0.09"/>
  <circle cx="32" cy="288" r="1.6" fill="#8A8A8A" fill-opacity="0.10"/>
  <circle cx="48" cy="288" r="1.6" fill="#8A8A8A" fill-opacity="0.11"/>
  <circle cx="64" cy="288" r="1.6" fill="#8A8A8A" fill-opacity="0.12"/>
  <circle cx="80" cy="288" r="1.6" fill="#8A8A8A" fill-opacity="0.13"/>
  <circle cx="96" cy="288" r="1.6" fill="#8A8A8A" fill-opacity="0.14"/>
  <circle cx="112" cy="288" r="1.6" fill="#8A8A8A" fill-opacity="0.15"/>
  <circle cx="128" cy="288" r="1.6" fill="#8A8A8A" fill-opacity="0.15"/>
  <circle cx="144" cy="288" r="1.6" fill="#8A8A8A" fill-opacity="0.15"/>
  <circle cx="160" cy="288" r="1.6" fill="#8A8A8A" fill-opacity="0.16"/>
  <circle cx="176" cy="288" r="1.6" fill="#8A8A8A" fill-opacity="0.15"/>
  <circle cx="192" cy="288" r="1.6" fill="#8A8A8A" fill-opacity="0.15"/>
  <circle cx="208" cy="288" r="1.6" fill="#8A8A8A" fill-opacity="0.15"/>
  <circle cx="224" cy="288" r="1.6" fill="#8A8A8A" fill-opacity="0.14"/>
  <circle cx="240" cy="288" r="1.6" fill="#8A8A8A" fill-opacity="0.13"/>
  <circle cx="256" cy="288" r="1.6" fill="#8A8A8A" fill-opacity="0.12"/>
  <circle cx="272" cy="288" r="1.6" fill="#8A8A8A" fill-opacity="0.11"/>
  <circle cx="288" cy="288" r="1.6" fill="#8A8A8A" fill-opacity="0.10"/>
  <circle cx="304" cy="288" r="1.6" fill="#8A8A8A" fill-opacity="0.09"/>
</svg>
